<svg xmlns="http://www.w3.org/2000/svg" version="1.1" xmlns:xlink="http://www.w3.org/1999/xlink" xmlns:svgjs="http://svgjs.com/svgjs" width="1000" height="1000"><svg xmlns="http://www.w3.org/2000/svg" xmlns:xlink="http://www.w3.org/1999/xlink" version="1.1" width="1000" height="1000" viewBox="0 0 1000 1000" xml:space="preserve">
<defs>
</defs>
<rect x="0" y="0" width="100%" height="100%" fill="rgba(255,255,255,0)"></rect>
<g transform="matrix(6.291 0 0 6.291 496.9896 496.9895)" id="SvgjsG1007" clip-path="url(#CLIPPATH_3)">
<clipPath id="SvgjsClipPath1006">
	<rect transform="matrix(1 0 0 1 0.0001 0)" id="SvgjsRect1005" x="-79" y="-79" rx="0" ry="0" width="158" height="158"></rect>
</clipPath>
<path style="stroke: none; stroke-width: 0; stroke-dasharray: none; stroke-linecap: butt; stroke-dashoffset: 0; stroke-linejoin: miter; stroke-miterlimit: 4; is-custom-font: none; font-file-url: none; fill: rgb(252,238,33); fill-rule: nonzero; opacity: 1;" vector-effect="non-scaling-stroke" transform=" translate(-78.9999, -79)" d="M 106.124 -0.0000765851 H 51.8754 C 51.8303 -0.0000765851 51.7848 -0.0000765851 51.7397 -0.0000765851 C 23.1271 0.0374314 -0.0376151 23.2628 -0.000107103 51.8754 V 106.124 C -0.000107103 106.17 -0.000107103 106.215 -0.000107103 106.26 C 0.0374009 134.873 23.2628 158.037 51.8754 158 H 106.124 C 106.17 158 106.215 158 106.26 158 C 134.873 157.962 158.037 134.737 158 106.124 V 51.8754 C 158 51.8303 158 51.7848 158 51.7397 C 157.962 23.1271 134.737 -0.0375846 106.124 -0.0000765851 Z" stroke-linecap="round"></path>
</g>
<g transform="matrix(1 0 0 1 495.2158 495.2158)" id="SvgjsG1004">
<g style="">
		<g transform="matrix(9.5735 0 0 9.5735 0 0)" id="SvgjsG1003">
<rect style="stroke: none; stroke-width: 0; stroke-dasharray: none; stroke-linecap: butt; stroke-dashoffset: 0; stroke-linejoin: miter; stroke-miterlimit: 4; is-custom-font: none; font-file-url: none; fill: rgb(255,0,0); fill-opacity: 0; fill-rule: nonzero; opacity: 1; visibility: hidden;" vector-effect="non-scaling-stroke" x="-540" y="-540" rx="0" ry="0" width="1080" height="1080"></rect>
</g>
		<g transform="matrix(1.2446 0 0 -1.2446 0.0074 0.0126)" id="SvgjsG1002">
<path style="stroke: none; stroke-width: 0; stroke-dasharray: none; stroke-linecap: butt; stroke-dashoffset: 0; stroke-linejoin: miter; stroke-miterlimit: 4; is-custom-font: none; font-file-url: none; fill: rgb(39,88,0); fill-rule: nonzero; opacity: 1;" vector-effect="non-scaling-stroke" transform=" translate(-1005.6264, -1250.8221)" d="M 866 1632 C 863 1627 870 1590 880 1549 C 904 1458 904 1460 882 1460 C 856 1460 830 1428 830 1397 C 830 1382 827 1371 823 1373 C 818 1374 805 1365 793 1353 C 766 1326 735 1332 750 1360 C 768 1394 762 1409 729 1408 C 712 1407 696 1401 693 1393 C 683 1367 710 1301 741 1277 C 768 1256 770 1250 760 1234 C 751 1219 752 1206 765 1170 C 795 1089 795 1092 754 1075 C 733 1066 712 1054 708 1047 C 694 1024 700 1012 723 1017 C 741 1021 742 1020 730 1011 C 717 1002 717 1000 730 1000 C 739 1000 750 1004 755 1009 C 761 1015 774 1006 790 984 C 816 949 842 943 848 972 C 850 981 842 998 830 1010 C 818 1022 811 1038 814 1046 C 819 1058 825 1057 850 1039 C 866 1026 880 1007 880 996 C 880 985 888 968 897 958 C 912 941 912 938 885 910 L 857 881 L 883 869 C 918 853 939 863 946 900 C 952 927 956 930 990 930 C 1023 930 1029 926 1039 900 C 1051 864 1071 854 1100 870 L 1122 882 L 1099 906 L 1076 930 L 1107 924 C 1155 915 1205 971 1163 987 C 1154 991 1144 988 1142 982 C 1136 963 1110 968 1110 988 C 1110 1008 1149 1050 1168 1050 C 1175 1050 1190 1034 1201 1015 C 1215 992 1229 980 1243 980 C 1261 980 1262 982 1250 990 C 1237 998 1237 1000 1252 1000 C 1279 1000 1254 1047 1218 1062 C 1185 1077 1185 1076 1210 1125 C 1221 1146 1233 1179 1236 1197 C 1242 1230 1253 1239 1265 1221 C 1268 1216 1266 1209 1260 1205 C 1255 1202 1250 1190 1250 1179 C 1250 1164 1257 1160 1285 1160 C 1326 1160 1330 1175 1304 1240 C 1288 1278 1250 1310 1218 1310 C 1210 1310 1204 1324 1203 1344 C 1201 1383 1174 1420 1148 1420 C 1125 1420 1125 1428 1150 1481 C 1174 1534 1175 1560 1154 1560 C 1145 1560 1125 1531 1103 1483 C 1084 1440 1060 1397 1050 1388 C 1034 1373 1032 1373 1021 1396 C 1015 1410 995 1429 977 1440 C 949 1457 941 1470 931 1513 C 909 1613 899 1640 885 1640 C 877 1640 869 1636 866 1632 z M 921 1495 C 938 1430 949 1376 947 1374 C 945 1372 931 1416 916 1472 C 877 1624 876 1626 884 1618 C 888 1615 905 1559 921 1495 z M 1118 1455 C 1095 1409 1075 1372 1073 1374 C 1068 1379 1145 1540 1152 1540 C 1157 1540 1141 1502 1118 1455 z M 914 1425 C 921 1399 897 1340 880 1340 C 867 1340 850 1375 850 1402 C 850 1451 903 1469 914 1425 z M 995 1405 C 1021 1380 1027 1360 1010 1360 C 1005 1360 1000 1366 1000 1374 C 1000 1382 988 1398 973 1409 C 957 1420 951 1430 958 1430 C 965 1430 982 1419 995 1405 z M 1173 1382 C 1185 1372 1190 1355 1188 1336 C 1185 1300 1167 1298 1162 1332 C 1157 1363 1142 1380 1119 1380 C 1107 1380 1103 1385 1106 1395 C 1113 1413 1145 1407 1173 1382 z M 707 1368 C 704 1360 701 1363 701 1374 C 700 1385 703 1391 706 1387 C 709 1384 710 1375 707 1368 z M 980 1375 C 980 1367 978 1360 976 1360 C 974 1360 970 1367 966 1375 C 963 1383 965 1390 970 1390 C 976 1390 980 1383 980 1375 z M 1144 1344 C 1147 1336 1146 1330 1142 1330 C 1129 1331 1100 1357 1106 1363 C 1115 1372 1138 1360 1144 1344 z M 850 1356 C 850 1354 853 1344 856 1336 C 861 1324 858 1321 844 1327 C 832 1332 829 1330 835 1321 C 845 1303 819 1288 803 1302 C 793 1310 790 1308 790 1296 C 790 1286 782 1280 769 1280 C 754 1280 750 1285 754 1295 C 758 1306 754 1310 743 1308 C 734 1306 725 1310 723 1317 C 720 1325 729 1327 753 1323 C 781 1319 792 1322 806 1339 C 822 1357 850 1368 850 1356 z M 957 1338 C 954 1330 951 1333 951 1344 C 950 1355 953 1361 956 1357 C 959 1354 960 1345 957 1338 z M 1046 1303 C 1032 1277 1021 1258 1020 1262 C 1020 1274 1063 1360 1068 1356 C 1070 1354 1060 1330 1046 1303 z M 1026 1335 C 1007 1320 980 1315 980 1325 C 980 1331 1020 1349 1035 1349 C 1041 1349 1036 1343 1026 1335 z M 905 1315 C 885 1300 865 1292 861 1295 C 852 1305 900 1340 923 1340 C 938 1340 935 1334 905 1315 z M 1110 1330 C 1123 1322 1123 1320 1108 1320 C 1099 1320 1088 1325 1085 1330 C 1077 1343 1090 1343 1110 1330 z M 994 1277 C 1004 1250 1002 1242 975 1177 C 968 1161 972 1159 1006 1162 C 1042 1165 1045 1167 1048 1199 C 1052 1243 1074 1264 1116 1264 C 1153 1264 1174 1248 1185 1213 C 1189 1196 1187 1190 1176 1190 C 1168 1190 1158 1199 1155 1210 C 1146 1237 1103 1247 1082 1226 C 1064 1209 1076 1204 1100 1220 C 1109 1225 1119 1225 1127 1218 C 1145 1203 1143 1182 1123 1177 C 1111 1174 1113 1172 1130 1171 C 1144 1171 1169 1174 1187 1179 C 1218 1188 1219 1187 1210 1164 C 1189 1111 1169 1080 1133 1051 C 1112 1034 1092 1020 1087 1020 C 1082 1020 1063 1032 1044 1046 C 1008 1074 976 1072 982 1043 C 984 1033 996 1020 1008 1014 C 1026 1005 1028 1001 1017 997 C 1009 994 992 994 980 997 C 964 1001 959 999 962 990 C 967 975 1040 969 1040 984 C 1040 990 1044 988 1049 980 C 1064 957 1052 950 1000 950 C 942 950 905 962 896 985 C 891 999 895 1001 920 995 C 956 987 961 1005 926 1014 C 912 1017 888 1032 871 1046 C 846 1066 841 1077 846 1097 C 851 1114 846 1131 830 1152 C 811 1178 810 1182 824 1177 C 834 1173 857 1170 876 1170 C 908 1170 910 1168 910 1135 C 910 1106 914 1100 931 1100 C 947 1100 951 1105 947 1120 C 944 1131 946 1140 951 1140 C 964 1140 962 1177 949 1186 C 943 1189 933 1187 928 1182 C 914 1168 880 1185 880 1205 C 880 1213 889 1224 900 1230 C 915 1238 924 1236 940 1220 C 953 1207 960 1205 960 1213 C 960 1232 939 1250 915 1250 C 889 1250 870 1232 870 1209 C 870 1199 865 1188 858 1184 C 850 1179 849 1186 853 1211 C 862 1257 922 1312 958 1308 C 977 1306 988 1297 994 1277 z M 1020 1300 C 1020 1295 1018 1290 1016 1290 C 1013 1290 1008 1295 1005 1300 C 1002 1306 1004 1310 1009 1310 C 1015 1310 1020 1306 1020 1300 z M 1193 1260 C 1208 1243 1219 1226 1216 1223 C 1214 1220 1198 1233 1182 1252 C 1155 1281 1146 1285 1101 1284 C 1072 1284 1053 1288 1057 1293 C 1060 1298 1085 1300 1113 1297 C 1154 1293 1169 1287 1193 1260 z M 1252 1268 C 1251 1258 1256 1253 1266 1254 C 1275 1254 1285 1250 1287 1244 C 1290 1236 1281 1234 1258 1239 C 1234 1244 1224 1252 1222 1269 C 1219 1287 1222 1291 1237 1288 C 1247 1286 1254 1277 1252 1268 z M 840 1269 C 826 1264 809 1252 803 1243 C 796 1234 787 1229 783 1233 C 771 1245 813 1280 839 1279 L 865 1279 L 840 1269 z M 845 1240 C 842 1235 835 1230 829 1230 C 824 1230 820 1235 820 1240 C 820 1246 827 1250 836 1250 C 844 1250 848 1246 845 1240 z M 1034 1219 C 1028 1208 1010 1217 1010 1230 C 1010 1235 1017 1237 1025 1234 C 1033 1230 1037 1224 1034 1219 z M 828 1201 C 831 1192 826 1190 811 1195 C 782 1204 784 1185 815 1148 C 829 1132 840 1115 840 1110 C 840 1105 829 1088 815 1072 C 784 1035 784 1033 816 1004 C 830 991 838 975 835 970 C 829 960 770 1024 770 1041 C 770 1045 782 1063 796 1080 L 823 1111 L 803 1133 C 772 1167 768 1178 780 1200 C 792 1223 821 1223 828 1201 z M 1304 1195 C 1307 1187 1305 1180 1300 1180 C 1294 1180 1290 1187 1290 1195 C 1290 1203 1292 1210 1294 1210 C 1296 1210 1300 1203 1304 1195 z M 1020 1184 C 1020 1176 1016 1172 1010 1175 C 1005 1178 1000 1185 1000 1191 C 1000 1196 1005 1200 1010 1200 C 1016 1200 1020 1193 1020 1184 z M 1271 1177 C 1261 1168 1260 1169 1266 1183 C 1269 1193 1275 1198 1278 1195 C 1281 1192 1278 1184 1271 1177 z M 1072 998 C 1115 951 1123 947 1140 958 C 1151 965 1160 966 1160 961 C 1160 955 1152 947 1143 942 C 1119 928 1090 945 1058 991 C 1043 1012 1023 1030 1015 1030 C 1007 1030 1000 1035 1000 1040 C 1000 1063 1027 1047 1072 998 z" stroke-linecap="round"></path>
</g>
		<g transform="matrix(1.2446 0 0 -1.2446 104.4467 146.1833)" id="SvgjsG1001">
<path style="stroke: none; stroke-width: 0; stroke-dasharray: none; stroke-linecap: butt; stroke-dashoffset: 0; stroke-linejoin: miter; stroke-miterlimit: 4; is-custom-font: none; font-file-url: none; fill: rgb(39,88,0); fill-rule: nonzero; opacity: 1;" vector-effect="non-scaling-stroke" transform=" translate(-1080.3308, -1144.9028)" d="M 1060 1169 C 1043 1139 1051 1106 1077 1102 C 1095 1099 1098 1103 1093 1122 C 1089 1140 1090 1142 1099 1130 C 1113 1111 1113 1130 1100 1164 C 1088 1195 1074 1197 1060 1169 z" stroke-linecap="round"></path>
</g>
		<g transform="matrix(1.2446 0 0 -1.2446 15.2198 204.5836)" id="SvgjsG1000">
<path style="stroke: none; stroke-width: 0; stroke-dasharray: none; stroke-linecap: butt; stroke-dashoffset: 0; stroke-linejoin: miter; stroke-miterlimit: 4; is-custom-font: none; font-file-url: none; fill: rgb(39,88,0); fill-rule: nonzero; opacity: 1;" vector-effect="non-scaling-stroke" transform=" translate(-1010, -1100)" d="M 1000 1100 C 1000 1095 1005 1090 1010 1090 C 1016 1090 1020 1095 1020 1100 C 1020 1106 1016 1110 1010 1110 C 1005 1110 1000 1106 1000 1100 z" stroke-linecap="round"></path>
</g>
</g>
</g>
</svg><style>@media (prefers-color-scheme: light) { :root { filter: none; } }
</style></svg>