<?xml version="1.0" standalone="no"?>
<!DOCTYPE svg PUBLIC "-//W3C//DTD SVG 20010904//EN"
 "http://www.w3.org/TR/2001/REC-SVG-20010904/DTD/svg10.dtd">
<svg version="1.0" xmlns="http://www.w3.org/2000/svg"
 width="200.000000pt" height="200.000000pt" viewBox="0 0 200.000000 200.000000"
 preserveAspectRatio="xMidYMid meet">

<g transform="translate(0.000000,200.000000) scale(0.100000,-0.100000)"
fill="#000000" stroke="none">
<path d="M866 1632 c-3 -5 4 -42 14 -83 24 -91 24 -89 2 -89 -26 0 -52 -32
-52 -63 0 -15 -3 -26 -7 -24 -5 1 -18 -8 -30 -20 -27 -27 -58 -21 -43 7 18 34
12 49 -21 48 -17 -1 -33 -7 -36 -15 -10 -26 17 -92 48 -116 27 -21 29 -27 19
-43 -9 -15 -8 -28 5 -64 30 -81 30 -78 -11 -95 -21 -9 -42 -21 -46 -28 -14
-23 -8 -35 15 -30 18 4 19 3 7 -6 -13 -9 -13 -11 0 -11 9 0 20 4 25 9 6 6 19
-3 35 -25 26 -35 52 -41 58 -12 2 9 -6 26 -18 38 -12 12 -19 28 -16 36 5 12
11 11 36 -7 16 -13 30 -32 30 -43 0 -11 8 -28 17 -38 15 -17 15 -20 -12 -48
l-28 -29 26 -12 c35 -16 56 -6 63 31 6 27 10 30 44 30 33 0 39 -4 49 -30 12
-36 32 -46 61 -30 l22 12 -23 24 -23 24 31 -6 c48 -9 98 47 56 63 -9 4 -19 1
-21 -5 -6 -19 -32 -14 -32 6 0 20 39 62 58 62 7 0 22 -16 33 -35 14 -23 28
-35 42 -35 18 0 19 2 7 10 -13 8 -13 10 2 10 27 0 2 47 -34 62 -33 15 -33 14
-8 63 11 21 23 54 26 72 6 33 17 42 29 24 3 -5 1 -12 -5 -16 -5 -3 -10 -15
-10 -26 0 -15 7 -19 35 -19 41 0 45 15 19 80 -16 38 -54 70 -86 70 -8 0 -14
14 -15 34 -2 39 -29 76 -55 76 -23 0 -23 8 2 61 24 53 25 79 4 79 -9 0 -29
-29 -51 -77 -19 -43 -43 -86 -53 -95 -16 -15 -18 -15 -29 8 -6 14 -26 33 -44
44 -28 17 -36 30 -46 73 -22 100 -32 127 -46 127 -8 0 -16 -4 -19 -8z m55
-137 c17 -65 28 -119 26 -121 -2 -2 -16 42 -31 98 -39 152 -40 154 -32 146 4
-3 21 -59 37 -123z m197 -40 c-23 -46 -43 -83 -45 -81 -5 5 72 166 79 166 5 0
-11 -38 -34 -85z m-204 -30 c7 -26 -17 -85 -34 -85 -13 0 -30 35 -30 62 0 49
53 67 64 23z m81 -20 c26 -25 32 -45 15 -45 -5 0 -10 6 -10 14 0 8 -12 24 -27
35 -16 11 -22 21 -15 21 7 0 24 -11 37 -25z m178 -23 c12 -10 17 -27 15 -46
-3 -36 -21 -38 -26 -4 -5 31 -20 48 -43 48 -12 0 -16 5 -13 15 7 18 39 12 67
-13z m-466 -14 c-3 -8 -6 -5 -6 6 -1 11 2 17 5 13 3 -3 4 -12 1 -19z m273 7
c0 -8 -2 -15 -4 -15 -2 0 -6 7 -10 15 -3 8 -1 15 4 15 6 0 10 -7 10 -15z m164
-31 c3 -8 2 -14 -2 -14 -13 1 -42 27 -36 33 9 9 32 -3 38 -19z m-294 12 c0 -2
3 -12 6 -20 5 -12 2 -15 -12 -9 -12 5 -15 3 -9 -6 10 -18 -16 -33 -32 -19 -10
8 -13 6 -13 -6 0 -10 -8 -16 -21 -16 -15 0 -19 5 -15 15 4 11 0 15 -11 13 -9
-2 -18 2 -20 9 -3 8 6 10 30 6 28 -4 39 -1 53 16 16 18 44 29 44 17z m107 -18
c-3 -8 -6 -5 -6 6 -1 11 2 17 5 13 3 -3 4 -12 1 -19z m89 -35 c-14 -26 -25
-45 -26 -41 0 12 43 98 48 94 2 -2 -8 -26 -22 -53z m-20 32 c-19 -15 -46 -20
-46 -10 0 6 40 24 55 24 6 0 1 -6 -9 -14z m-121 -20 c-20 -15 -40 -23 -44 -20
-9 10 39 45 62 45 15 0 12 -6 -18 -25z m205 15 c13 -8 13 -10 -2 -10 -9 0 -20
5 -23 10 -8 13 5 13 25 0z m-116 -53 c10 -27 8 -35 -19 -100 -7 -16 -3 -18 31
-15 36 3 39 5 42 37 4 44 26 65 68 65 37 0 58 -16 69 -51 4 -17 2 -23 -9 -23
-8 0 -18 9 -21 20 -9 27 -52 37 -73 16 -18 -17 -6 -22 18 -6 9 5 19 5 27 -2
18 -15 16 -36 -4 -41 -12 -3 -10 -5 7 -6 14 0 39 3 57 8 31 9 32 8 23 -15 -21
-53 -41 -84 -77 -113 -21 -17 -41 -31 -46 -31 -5 0 -24 12 -43 26 -36 28 -68
26 -62 -3 2 -10 14 -23 26 -29 18 -9 20 -13 9 -17 -8 -3 -25 -3 -37 0 -16 4
-21 2 -18 -7 5 -15 78 -21 78 -6 0 6 4 4 9 -4 15 -23 3 -30 -49 -30 -58 0 -95
12 -104 35 -5 14 -1 16 24 10 36 -8 41 10 6 19 -14 3 -38 18 -55 32 -25 20
-30 31 -25 51 5 17 0 34 -16 55 -19 26 -20 30 -6 25 10 -4 33 -7 52 -7 32 0
34 -2 34 -35 0 -29 4 -35 21 -35 16 0 20 5 16 20 -3 11 -1 20 4 20 13 0 11 37
-2 46 -6 3 -16 1 -21 -4 -14 -14 -48 3 -48 23 0 8 9 19 20 25 15 8 24 6 40
-10 13 -13 20 -15 20 -7 0 19 -21 37 -45 37 -26 0 -45 -18 -45 -41 0 -10 -5
-21 -12 -25 -8 -5 -9 2 -5 27 9 46 69 101 105 97 19 -2 30 -11 36 -31z m26 23
c0 -5 -2 -10 -4 -10 -3 0 -8 5 -11 10 -3 6 -1 10 4 10 6 0 11 -4 11 -10z m173
-40 c15 -17 26 -34 23 -37 -2 -3 -18 10 -34 29 -27 29 -36 33 -81 32 -29 0
-48 4 -44 9 3 5 28 7 56 4 41 -4 56 -10 80 -37z m59 8 c-1 -10 4 -15 14 -14 9
0 19 -4 21 -10 3 -8 -6 -10 -29 -5 -24 5 -34 13 -36 30 -3 18 0 22 15 19 10
-2 17 -11 15 -20z m-412 1 c-14 -5 -31 -17 -37 -26 -7 -9 -16 -14 -20 -10 -12
12 30 47 56 46 l26 0 -25 -10z m5 -29 c-3 -5 -10 -10 -16 -10 -5 0 -9 5 -9 10
0 6 7 10 16 10 8 0 12 -4 9 -10z m189 -21 c-6 -11 -24 -2 -24 11 0 5 7 7 15 4
8 -4 12 -10 9 -15z m-206 -18 c3 -9 -2 -11 -17 -6 -29 9 -27 -10 4 -47 14 -16
25 -33 25 -38 0 -5 -11 -22 -25 -38 -31 -37 -31 -39 1 -68 14 -13 22 -29 19
-34 -6 -10 -65 54 -65 71 0 4 12 22 26 39 l27 31 -20 22 c-31 34 -35 45 -23
67 12 23 41 23 48 1z m476 -6 c3 -8 1 -15 -4 -15 -6 0 -10 7 -10 15 0 8 2 15
4 15 2 0 6 -7 10 -15z m-284 -11 c0 -8 -4 -12 -10 -9 -5 3 -10 10 -10 16 0 5
5 9 10 9 6 0 10 -7 10 -16z m251 -7 c-10 -9 -11 -8 -5 6 3 10 9 15 12 12 3 -3
0 -11 -7 -18z m-199 -179 c43 -47 51 -51 68 -40 11 7 20 8 20 3 0 -6 -8 -14
-17 -19 -24 -14 -53 3 -85 49 -15 21 -35 39 -43 39 -8 0 -15 5 -15 10 0 23 27
7 72 -42z"/>
<path d="M1060 1169 c-17 -30 -9 -63 17 -67 18 -3 21 1 16 20 -4 18 -3 20 6 8
14 -19 14 0 1 34 -12 31 -26 33 -40 5z"/>
<path d="M1000 1100 c0 -5 5 -10 10 -10 6 0 10 5 10 10 0 6 -4 10 -10 10 -5 0
-10 -4 -10 -10z"/>
<path d="M677 793 c-4 -3 -7 -46 -7 -93 0 -97 10 -117 55 -106 21 5 25 11 21
29 l-6 22 11 -22 c15 -28 45 -39 64 -23 20 16 19 56 -1 64 -14 5 -14 7 0 22
24 23 20 53 -10 66 -28 13 -25 15 -62 -39 -11 -16 -11 -16 -2 4 15 32 12 70
-6 77 -21 8 -49 8 -57 -1z"/>
<path d="M1387 793 c-4 -3 -7 -46 -7 -93 0 -96 11 -117 54 -106 22 5 23 10 18
52 -3 33 -2 45 6 40 6 -4 9 -13 5 -21 -9 -25 6 -63 28 -70 36 -12 50 11 43 74
-9 72 -18 84 -67 79 -30 -3 -35 -1 -23 8 9 6 16 16 16 22 0 18 -58 31 -73 15z"/>
<path d="M1748 785 c-7 -9 -19 -22 -25 -30 -15 -16 -17 -51 -3 -60 6 -3 10
-26 10 -50 0 -34 4 -45 19 -50 36 -11 51 4 51 51 0 32 4 44 15 44 25 0 18 40
-7 41 -22 1 -22 1 2 8 28 8 39 39 18 52 -21 14 -66 10 -80 -6z"/>
<path d="M1014 751 l-19 -40 -23 22 c-28 26 -83 28 -112 2 -31 -28 -28 -97 6
-124 29 -23 74 -27 105 -11 24 13 25 40 2 40 -17 1 -17 1 0 11 9 5 17 19 17
29 0 13 5 18 15 14 10 -4 15 -20 15 -45 0 -44 25 -65 66 -55 27 7 32 34 12 67
-11 17 -10 22 5 30 21 12 23 59 2 59 -8 0 -15 9 -15 20 0 15 -7 20 -28 20 -24
0 -32 -7 -48 -39z m-67 -117 c-3 -3 -12 -4 -19 -1 -8 3 -5 6 6 6 11 1 17 -2
13 -5z"/>
<path d="M183 773 c-17 -6 -18 -154 -1 -171 19 -19 59 -15 65 7 3 12 17 23 34
26 57 13 78 84 36 123 -18 17 -35 22 -73 21 -27 0 -55 -3 -61 -6z m74 -75 c-3
-8 -6 -5 -6 6 -1 11 2 17 5 13 3 -3 4 -12 1 -19z"/>
<path d="M1221 754 c-21 -26 -28 -84 -15 -119 4 -8 19 -22 35 -30 64 -34 138
-4 125 49 -7 29 -21 31 -68 11 -15 -6 -18 -2 -18 26 0 29 1 31 13 15 19 -27
71 -18 75 12 6 39 -24 62 -79 62 -39 0 -51 -4 -68 -26z"/>
<path d="M400 753 c-35 -13 -50 -37 -50 -78 0 -95 116 -120 154 -32 12 27 14
29 15 10 2 -52 88 -84 125 -47 19 18 21 54 4 54 -9 0 -9 3 0 12 31 31 -3 88
-54 88 -29 0 -72 -35 -77 -63 -3 -22 -4 -22 -14 3 -6 14 -17 31 -25 37 -17 15
-59 23 -78 16z m27 -90 c-3 -10 -5 -4 -5 12 0 17 2 24 5 18 2 -7 2 -21 0 -30z
m174 10 c13 -16 12 -17 -3 -4 -10 7 -18 15 -18 17 0 8 8 3 21 -13z"/>
<path d="M1603 753 c-54 -10 -71 -96 -28 -138 26 -27 72 -33 106 -15 24 13 25
40 2 40 -17 1 -17 1 0 11 31 18 13 99 -23 99 -5 0 -14 2 -22 4 -7 2 -23 1 -35
-1z m54 -119 c-3 -3 -12 -4 -19 -1 -8 3 -5 6 6 6 11 1 17 -2 13 -5z"/>
</g>
</svg>
